# AST/ASF file generated using VICON BodyLanguage
# -----------------------------------------------
:version 1.10
:name VICON
:units
  mass 1.0
  length 0.45
  angle deg
:documentation
   .ast/.asf automatically generated from VICON data using
   VICON BodyBuilder and BodyLanguage model FoxedUp or BRILLIANT.MOD
:root
   order TX TY TZ RX RY RZ
   axis XYZ
   position 0 0 0  
   orientation 0 0 0 
:bonedata
  begin
     id 1 
     name lhipjoint
     direction 0.612567 -0.751349 0.245431 
     length 2.42285 
     axis 0 0 0  XYZ
  end
  begin
     id 2 
     name lfemur
     direction 0.34202 -0.939693 0  
     length 7.11304  
     axis 0 0 20  XYZ
    dof rx ry rz
    limits (-160.0 20.0)
           (-70.0 70.0)
           (-60.0 70.0)
  end
  begin
     id 3 
     name ltibia
     direction 0.34202 -0.939693 0   
     length 7.84529   
     axis 0 0 20   XYZ
    dof rx
    limits (-10.0 170.0)
  end
  begin
     id 4 
     name lfoot
     direction 0.0779239 -0.214094 0.9737   
     length 1.97176   
     axis -90 7.62852e-016 20   XYZ
    dof rx rz
    limits (-45.0 90.0)
           (-70.0 20.0)
  end
  begin
     id 5 
     name ltoes
     direction 1.53565e-011 -4.21709e-011 1   
     length 0.993197   
     axis -90 7.62852e-016 20   XYZ
    dof rx
    limits (-90.0 20.0)
  end
  begin
     id 6 
     name rhipjoint
     direction -0.665722 -0.709315 0.231701   
     length 2.56642  
     axis 0 0 0  XYZ 
  end
  begin
     id 7 
     name rfemur
     direction -0.34202 -0.939693 0   
     length 7.32108   
     axis 0 0 -20   XYZ
    dof rx ry rz
    limits (-160.0 20.0)
           (-70.0 70.0)
           (-70.0 60.0)
  end
  begin
     id 8 
     name rtibia
     direction -0.34202 -0.939693 0   
     length 7.81254   
     axis 0 0 -20   XYZ
    dof rx
    limits (-10.0 170.0)
 end
 begin
     id 9 
     name rfoot
     direction -0.0832806 -0.228812 0.969902   
     length 2.08278  
     axis -90 -7.62852e-016 -20   XYZ
    dof rx rz
    limits (-45.0 90.0)
           (-20.0 70.0)
  end
  begin
     id 10 
     name rtoes
     direction -1.53589e-011 -4.22086e-011 1   
     length 1.04609   
     axis -90 -7.62852e-016 -20   XYZ
    dof rx
    limits (-90.0 20.0)
  end
  begin
     id 11 
     name lowerback
     direction -0.00506013 0.988403 -0.151766   
     length 2.01978   
     axis 0 0 0   XYZ
    dof rx ry rz
    limits (-20.0 45.0)
           (-30.0 30.0)
           (-30.0 30.0)
  end
  begin
     id 12 
     name upperback
     direction -0.00836389 0.99968 0.0238859   
     length 2.01276   
     axis 0 0 0   XYZ
    dof rx ry rz
    limits (-20.0 45.0)
           (-30.0 30.0)
           (-30.0 30.0)
  end
  begin
     id 13 
     name thorax
     direction -0.00684136 0.995386 0.0957043   
     length 2.07303   
     axis 0 0 0   XYZ
    dof rx ry rz
    limits (-20.0 45.0)
           (-30.0 30.0)
           (-30.0 30.0)
  end
  begin
     id 14 
     name lowerneck
     direction -0.0161045 0.999661 0.0204485   
     length 1.91243   
     axis 0 0 0   XYZ
    dof rx ry rz
    limits (-20.0 45.0)
           (-30.0 30.0)
           (-30.0 30.0)
  end
  begin
     id 15 
     name upperneck
     direction 0.0553583 0.990946 -0.122319   
     length 1.91574   
     axis 0 0 0   XYZ
    dof rx ry rz
    limits (-20.0 45.0)
           (-30.0 30.0)
           (-30.0 30.0)
  end
  begin
     id 16
     name head
     direction 0.0180273 0.998839 -0.0446756  
     length 1.92693  
     axis 0 0 0   XYZ
    dof rx ry rz
    limits (-20.0 45.0)
           (-30.0 30.0)
           (-30.0 30.0)
  end
  begin
     id 17 
     name lclavicle
     direction 0.945646 0.319323 -0.0615358  
     length 4.0076  
     axis 0 0 0   XYZ
    dof ry rz
    limits (-20.0 10.0)
           (0.0 20.0)
  end
  begin
     id 18 
     name lhumerus
     direction 1 -4.48967e-011 -2.79996e-027   
     length 5.64147   
     axis 180 -30 -90   XYZ
    dof rx ry rz
    limits (-60.0 90.0)
           (-90.0 90.0)
           (-90.0 90.0)
  end
  begin
     id 19
     name lradius
     direction 1 -4.48976e-011 -9.5122e-027   
     length 2.86444   
     axis 180 -30 -90   XYZ
    dof rx
    limits (-10.0 170.0)
  end
  begin
     id 20
     name lwrist
     direction 1 -4.48983e-011 -1.24047e-026   
     length 1.43222   
     axis 9.05591e-015 90 90   XYZ
    dof ry
    limits (-180.0 0.0)
 end
  begin
     id 21 
     name lhand
     direction 1 -4.4892e-011 -2.48094e-026   
     length 0.722123   
     axis 1.58305e-014 90 90   XYZ
    dof rx rz
    limits (-90.0 90.0)
           (-45.0 45.0)
  end
  begin
     id 22 
     name lfingers
     direction 1 -4.48895e-011 -4.96187e-026   
     length 0.582194   
     axis 3.1661e-014 90 90   XYZ
    dof rx
    limits (0.0 90.0)
  end
  begin
     id 23
     name lthumb
     direction 0.707107 -6.34961e-011 0.707107   
     length 0.835918   
     axis -90 45 2.85299e-015   XYZ
    dof rx rz
    limits (-45.0 45.0)
           (-45.0 45.0)
  end
  begin
     id 24 
     name rclavicle
     direction -0.932635 0.324218 -0.15835   
     length 3.65819  
     axis 0 0 0   XYZ 
    dof ry rz
    limits (-10.0 20.0)
           (-20.0 0.0)
  end
  begin
     id 25 
     name rhumerus
     direction -1 -4.48965e-011 -4.02296e-027  
     length 5.44729   
     axis 180 30 90   XYZ
    dof rx ry rz
    limits (-90.0 60.0)
           (-90.0 90.0)
           (-90.0 90.0)
  end
  begin
     id 26 
     name rradius
     direction -1 -4.48957e-011 -8.81087e-027   
     length 3.08821   
     axis 180 30 90   XYZ
    dof rx
    limits (-10.0 170.0)
  end
  begin
     id 27 
     name rwrist
     direction -1 -4.49015e-011 -1.24047e-026   
     length 1.5441   
     axis 9.05591e-015 -90 -90   XYZ
    dof ry
    limits (-180.0 0.0)
  end
  begin
     id 28
     name rhand
     direction -1 -4.4891e-011 -2.48094e-026   
     length 0.821049   
     axis 1.58305e-014 -90 -90   XYZ
    dof rx rz
    limits (-90.0 90.0)
           (-45.0 45.0)
  end
  begin
     id 29
     name rfingers
     direction -1 -4.48985e-011 -4.96187e-026   
     length 0.661951   
     axis 3.1661e-014 -90 -90   XYZ
    dof rx
    limits (0.0 90.0)
  end
  begin
     id 30
     name rthumb
     direction -0.707107 -6.34906e-011 0.707107   
     length 0.950433   
     axis -90 -45 -2.85299e-015   XYZ
    dof rx rz
    limits (-45.0 45.0)
           (-45.0 45.0)
  end
:hierarchy
  begin
    root lhipjoint rhipjoint lowerback
    lhipjoint lfemur
    lfemur ltibia
    ltibia lfoot
    lfoot ltoes
    rhipjoint rfemur
    rfemur rtibia
    rtibia rfoot
    rfoot rtoes
    lowerback upperback
    upperback thorax
    thorax lowerneck lclavicle rclavicle
    lowerneck upperneck
    upperneck head
    lclavicle lhumerus
    lhumerus lradius
    lradius lwrist
    lwrist lhand lthumb
    lhand lfingers
    rclavicle rhumerus
    rhumerus rradius
    rradius rwrist
    rwrist rhand rthumb
    rhand rfingers
  end

#!OML:ASF F:\VICON\USERDATA\INSTALL\rory3\rory3.ASF
:FULLY-SPECIFIED
:DEGREES
570
root 3.14263 17.6451 -0.0523793 -125.464 89.1055 -123.296
lowerback 3.08253 -1.6102 3.85016
upperback -3.53494 -1.78966 1.87149
thorax -5.45856 -0.975131 -0.0757003
lowerneck -7.69722 -1.24162 -0.866295
upperneck 18.8724 -4.09681 16.5559
head 7.43205 -0.330665 5.30634
rclavicle -4.67144e-015 2.14687e-014
rhumerus -3.01542 48.5056 -39.1021
rradius 104.711
rwrist -24.6683
rhand 19.217 17.9665
rfingers 7.12502
rthumb 43.805 -5.98878
lclavicle -4.67144e-015 2.14687e-014
lhumerus 24.0751 -76.4357 52.743
lradius 96.992
lwrist 67.6637
lhand 3.0224 25.6979
lfingers 7.12502
lthumb 28.482 53.5495
rfemur 2.8061 2.37997 18.3699
rtibia 14.438
rfoot -18.1704 -4.10637
rtoes -4.03854
lfemur 2.25571 2.49531 -16.7655
ltibia 12.6106
lfoot -12.8473 -2.49797
ltoes 0.70602
571
root 3.12782 17.6442 -0.0664028 -148.744 88.8436 -146.562
lowerback 3.02852 -1.67684 3.9847
upperback -3.56083 -1.86869 1.91343
thorax -5.46139 -1.01793 -0.101793
lowerneck -7.7916 -1.20198 -0.805641
upperneck 19.5347 -4.14282 16.6911
head 7.67478 -0.280953 5.36795
rclavicle -1.59028e-014 -7.95139e-016
rhumerus 2.26215 45.8558 -33.8384
rradius 105.877
rwrist -28.0956
rhand 18.491 18.3551
rfingers 7.12502
rthumb 43.1268 -5.84585
lclavicle -1.59028e-014 -7.95139e-016
lhumerus 29.3044 -73.3667 49.7607
lradius 97.9632
lwrist 68.9182
lhand 3.15804 25.8573
lfingers 7.12502
lthumb 28.6116 53.6872
rfemur 2.80318 2.29339 18.2397
rtibia 14.5566
rfoot -18.3912 -4.38145
rtoes -3.99682
lfemur 2.1567 2.57218 -16.8954
ltibia 12.5444
lfoot -12.5603 -2.98949
ltoes 0.71646
572
root 3.11791 17.6413 -0.0813638 -167.961 88.5193 -165.66
lowerback 2.90053 -1.75002 4.07118
upperback -3.47468 -1.97843 1.82801
thorax -5.30769 -1.0758 -0.236094
lowerneck -7.8116 -1.17468 -0.722413
upperneck 19.9783 -4.18589 16.8575
head 7.83347 -0.242117 5.42861
rclavicle 1.12313e-014 1.03368e-014
rhumerus 6.89368 42.6026 -29.6163
rradius 106.687
rwrist -31.3391
rhand 17.9432 17.8968
rfingers 7.12502
rthumb 42.6145 -6.48397
lclavicle 1.12313e-014 1.03368e-014
lhumerus 33.3433 -70.051 48.0129
lradius 98.4542
lwrist 69.9247
lhand 3.52998 25.6438
lfingers 7.12502
lthumb 28.9669 53.4133
rfemur 2.87092 2.05484 17.8948
rtibia 14.7957
rfoot -18.6211 -4.51875
rtoes -4.27773
lfemur 2.29237 2.65371 -17.2089
ltibia 12.3082
lfoot -12.2369 -3.4514
ltoes 1.01755
573
root 3.11217 17.6395 -0.0938966 -182.185 88.176 -179.724
lowerback 2.85181 -1.802 3.9143
upperback -3.42545 -2.0628 1.81765
thorax -5.22491 -1.11098 -0.155929
lowerneck -7.72445 -1.17008 -0.750739
upperneck 20.366 -4.22262 16.957
head 7.95227 -0.224311 5.48335
rclavicle 2.127e-014 -8.74653e-015
rhumerus 10.839 39.0857 -26.1557
rradius 107.115
rwrist -34.3185
rhand 17.5351 17.7537
rfingers 7.12502
rthumb 42.2323 -6.75801
lclavicle 2.127e-014 -8.74653e-015
lhumerus 36.0578 -66.6908 47.779
lradius 98.6797
lwrist 70.8772
lhand 3.51769 25.3582
lfingers 7.12502
lthumb 28.9551 53.1297
rfemur 2.96415 1.92098 17.4671
rtibia 15.1032
rfoot -18.8918 -4.65754
rtoes -4.618
lfemur 2.57826 2.75475 -17.6168
ltibia 11.9256
lfoot -11.8501 -3.87384
ltoes 1.41686
574
root 3.10211 17.6401 -0.10236 -189.307 87.7535 -186.742
lowerback 3.0069 -1.81188 3.4991
upperback -3.50001 -2.07386 2.03893
thorax -5.36696 -1.0963 0.312508
lowerneck -7.60297 -1.21066 -0.808356
upperneck 20.7233 -4.27449 16.8242
head 8.05042 -0.243634 5.45803
rclavicle 3.598e-014 -1.82882e-014
rhumerus 14.3205 35.4288 -23.0548
rradius 107.182
rwrist -37.0281
rhand 16.9352 18.0607
rfingers 7.12502
rthumb 41.6701 -6.63889
lclavicle 3.598e-014 -1.82882e-014
lhumerus 37.9567 -63.408 48.7381
lradius 98.4688
lwrist 71.1843
lhand 3.9344 25.1513
lfingers 7.12502
lthumb 29.3531 52.8538
rfemur 2.98423 1.90946 17.1702
rtibia 15.421
rfoot -19.2414 -4.89004
rtoes -4.58283
lfemur 2.84061 2.72434 -17.9285
ltibia 11.4421
lfoot -11.4491 -4.18157
ltoes 1.67103
575
root 3.08737 17.6422 -0.109003 -193.063 87.3038 -190.431
lowerback 3.07712 -1.8334 3.22016
upperback -3.48926 -2.10597 2.19648
thorax -5.37919 -1.09723 0.635757
lowerneck -7.66803 -1.24357 -0.767947
upperneck 21.0222 -4.32797 16.6448
head 8.16351 -0.258546 5.39707
rclavicle 2.62396e-014 0
rhumerus 17.5728 31.4218 -20.8137
rradius 106.844
rwrist -39.3795
rhand 16.6346 17.9605
rfingers 7.12502
rthumb 41.388 -6.83128
lclavicle 2.62396e-014 0
lhumerus 39.8417 -60.0665 49.6998
lradius 97.7091
lwrist 70.9766
lhand 4.75675 24.735
lfingers 7.12502
lthumb 30.1379 52.2972
rfemur 2.96196 1.91597 16.9438
rtibia 15.6787
rfoot -19.5451 -5.25415
rtoes -4.7832
lfemur 3.03374 2.71489 -18.1807
ltibia 10.9707
lfoot -10.9925 -4.49729
ltoes 1.88144
576
root 3.07157 17.6459 -0.115636 -193.606 86.8694 -190.947
lowerback 3.05351 -1.9147 3.33094
upperback -3.43025 -2.2103 2.22052
thorax -5.30919 -1.1517 0.604658
lowerneck -7.87901 -1.23708 -0.71227
upperneck 21.3592 -4.36566 16.5962
head 8.31988 -0.243862 5.38424
rclavicle 2.56432e-014 -2.14687e-014
rhumerus 20.5146 27.3167 -19.6206
rradius 106.257
rwrist -41.1418
rhand 16.1295 17.6326
rfingers 7.12502
rthumb 40.9138 -7.31118
lclavicle 2.56432e-014 -2.14687e-014
lhumerus 41.5569 -56.7686 50.6037
lradius 96.6603
lwrist 70.5666
lhand 5.05548 24.2473
lfingers 7.12502
lthumb 30.4229 51.7572
rfemur 2.93203 1.94616 16.8551
rtibia 15.8409
rfoot -19.7838 -5.65926
rtoes -4.87248
lfemur 3.11013 2.69903 -18.3027
ltibia 10.6376
lfoot -10.598 -4.81548
ltoes 1.99121
577
root 3.05492 17.6485 -0.121516 -193.909 86.3922 -191.245
lowerback 3.07721 -2.00719 3.43162
upperback -3.41897 -2.32597 2.23564
thorax -5.31686 -1.21215 0.574083
lowerneck -7.94854 -1.24066 -0.676808
upperneck 21.5474 -4.39791 16.602
head 8.4003 -0.237874 5.38703
rclavicle -1.11319e-014 8.74653e-015
rhumerus 23.1145 23.2901 -19.0285
rradius 105.431
rwrist -42.3511
rhand 15.2075 17.1368
rfingers 7.12502
rthumb 40.0469 -8.07512
lclavicle -1.11319e-014 8.74653e-015
lhumerus 42.9924 -53.6359 51.8213
lradius 95.4209
lwrist 69.6273
lhand 5.20484 23.9199
lfingers 7.12502
lthumb 30.5653 51.4033
rfemur 2.91525 1.86372 16.7472
rtibia 15.9496
rfoot -19.9824 -5.95192
rtoes -4.81488
lfemur 3.08915 2.58417 -18.4407
ltibia 10.4432
lfoot -10.3025 -5.10608
ltoes 2.37707
578
root 3.03823 17.6508 -0.126524 -192.645 85.9519 -189.996
lowerback 3.07055 -2.1176 3.55545
upperback -3.42677 -2.45792 2.34616
thorax -5.32501 -1.27853 0.630198
lowerneck -7.93429 -1.24924 -0.684731
upperneck 21.7172 -4.40716 16.5104
head 8.45357 -0.24036 5.36306
rclavicle 2.76311e-014 -6.36111e-015
rhumerus 25.6662 19.4634 -18.8251
rradius 104.232
rwrist -42.9021
rhand 13.912 16.7341
rfingers 7.12502
rthumb 38.8265 -8.8354
lclavicle 2.76311e-014 -6.36111e-015
lhumerus 44.0735 -50.5563 53.4671
lradius 93.856
lwrist 67.9992
lhand 5.89506 23.451
lfingers 7.12502
lthumb 31.2233 50.8096
rfemur 2.90495 1.73955 16.7517
rtibia 15.9944
rfoot -20.1835 -6.24559
rtoes -4.58987
lfemur 2.96422 2.48827 -18.4583
ltibia 10.3754
lfoot -10.0384 -5.40265
ltoes 2.71913
579
root 3.02251 17.6523 -0.129571 -191.724 85.5871 -189.1
lowerback 3.04465 -2.2493 3.60841
upperback -3.42173 -2.61815 2.54454
thorax -5.30169 -1.35336 0.817675
lowerneck -7.97024 -1.22335 -0.829336
upperneck 21.9657 -4.35607 16.3844
head 8.5371 -0.225131 5.36036
rclavicle -9.74045e-015 4.77083e-015
rhumerus 28.3214 15.8432 -19.185
rradius 102.606
rwrist -42.7802
rhand 12.3209 16.8941
rfingers 7.12502
rthumb 37.3242 -9.0859
lclavicle -9.74045e-015 4.77083e-015
lhumerus 44.89 -47.4513 55.407
lradius 91.836
lwrist 65.968
lhand 6.54499 22.275
lfingers 7.12502
lthumb 31.8425 49.5124
rfemur 2.87565 1.68338 16.7768
rtibia 16.0282
rfoot -20.347 -6.57817
rtoes -4.57553
lfemur 2.81293 2.47609 -18.4575
ltibia 10.3507
lfoot -9.77773 -5.72587
ltoes 3.32361
580
root 3.00504 17.6558 -0.131715 -191.321 85.2299 -188.751
lowerback 3.05948 -2.41109 3.62295
upperback -3.44636 -2.81424 2.77941
thorax -5.32868 -1.44366 1.07009
lowerneck -8.00933 -1.14882 -1.02843
upperneck 22.2237 -4.22219 16.213
head 8.61516 -0.182047 5.35904
rclavicle -2.84262e-014 3.49861e-014
rhumerus 31.0492 12.5429 -19.9765
rradius 100.758
rwrist -42.3929
rhand 10.0972 17.2921
rfingers 7.12502
rthumb 35.2185 -9.21264
lclavicle -2.84262e-014 3.49861e-014
lhumerus 45.5223 -44.4257 57.4687
lradius 89.4387
lwrist 63.5941
lhand 7.00657 20.2753
lfingers 7.12502
lthumb 32.282 47.4243
rfemur 2.81302 1.72776 16.7874
rtibia 16.05
rfoot -20.5106 -6.93409
rtoes -4.45169
lfemur 2.60701 2.49293 -18.4835
ltibia 10.3598
lfoot -9.52699 -6.03972
ltoes 3.47457
581
root 2.98695 17.6599 -0.132402 -191.87 84.8774 -189.364
lowerback 3.11541 -2.51621 3.59348
upperback -3.49683 -2.94054 2.91319
thorax -5.4069 -1.50116 1.23999
lowerneck -7.98018 -1.11216 -1.08353
upperneck 22.3167 -4.13198 16.0027
head 8.6265 -0.163383 5.3056
rclavicle -8.34896e-015 -1.11319e-014
rhumerus 33.5879 9.51328 -21.2786
rradius 98.7378
rwrist -41.9922
rhand 7.57139 17.4136
rfingers 7.12502
rthumb 32.8194 -9.62454
lclavicle -8.34896e-015 -1.11319e-014
lhumerus 46.1387 -41.6476 59.4737
lradius 86.819
lwrist 61.0056
lhand 7.3417 18.1108
lfingers 7.12502
lthumb 32.6009 45.1944
rfemur 2.71142 1.75299 16.7047
rtibia 16.1174
rfoot -20.6951 -7.25298
rtoes -4.13833
lfemur 2.44139 2.51712 -18.6001
ltibia 10.3015
lfoot -9.24396 -6.30997
ltoes 3.61153
582
root 2.97196 17.6626 -0.131288 -191.687 84.5789 -189.245
lowerback 3.16275 -2.49175 3.65932
upperback -3.56123 -2.89544 2.93
thorax -5.50431 -1.48095 1.22221
lowerneck -7.94885 -1.19392 -0.916836
upperneck 22.3459 -4.23983 15.8533
head 8.63653 -0.211232 5.21392
rclavicle 2.66371e-014 -3.18055e-014
rhumerus 35.7987 6.62724 -23.1881
rradius 96.4659
rwrist -41.4318
rhand 4.87121 17.1202
rfingers 7.12502
rthumb 30.2471 -10.422
lclavicle 2.66371e-014 -3.18055e-014
lhumerus 46.9149 -39.3209 61.3492
lradius 84.1443
lwrist 58.6418
lhand 7.03167 16.0326
lfingers 7.12502
lthumb 32.3058 43.1767
rfemur 2.59408 1.77427 16.7031
rtibia 16.2242
rfoot -20.8844 -7.51928
rtoes -4.05701
lfemur 2.31908 2.52677 -18.6327
ltibia 10.1711
lfoot -8.94979 -6.53823
ltoes 4.16564
